<svg xmlns="http://www.w3.org/2000/svg" xmlns:xlink="http://www.w3.org/1999/xlink" width="1280" zoomAndPan="magnify" viewBox="0 0 960 576.75" height="769" preserveAspectRatio="xMidYMid meet" version="1.0"><defs><g/><clipPath id="a27ea5dbd7"><path d="M 0.207031 0 L 959.792969 0 L 959.792969 576.5 L 0.207031 576.5 Z M 0.207031 0 " clip-rule="nonzero"/></clipPath><clipPath id="8ad805f9bd"><path d="M 348.652344 156.902344 L 611.347656 156.902344 L 611.347656 419.597656 L 348.652344 419.597656 Z M 348.652344 156.902344 " clip-rule="nonzero"/></clipPath><clipPath id="1627fbb01b"><path d="M 480 156.902344 C 407.460938 156.902344 348.652344 215.710938 348.652344 288.25 C 348.652344 360.789062 407.460938 419.597656 480 419.597656 C 552.539062 419.597656 611.347656 360.789062 611.347656 288.25 C 611.347656 215.710938 552.539062 156.902344 480 156.902344 Z M 480 156.902344 " clip-rule="nonzero"/></clipPath></defs><g clip-path="url(#a27ea5dbd7)"><path fill="#ffffff" d="M 0.207031 0 L 959.792969 0 L 959.792969 576.5 L 0.207031 576.5 Z M 0.207031 0 " fill-opacity="1" fill-rule="nonzero"/><path fill="#ffffff" d="M 0.207031 0 L 959.792969 0 L 959.792969 576.5 L 0.207031 576.5 Z M 0.207031 0 " fill-opacity="1" fill-rule="nonzero"/></g><g clip-path="url(#8ad805f9bd)"><g clip-path="url(#1627fbb01b)"><path fill="#e8d9cc" d="M 348.652344 156.902344 L 611.347656 156.902344 L 611.347656 419.597656 L 348.652344 419.597656 Z M 348.652344 156.902344 " fill-opacity="1" fill-rule="nonzero"/></g></g><g fill="#a87a64" fill-opacity="1"><g transform="translate(385.679912, 363.95396)"><g><path d="M 33.515625 0 C 24.097656 -0.925781 17.171875 -4.894531 12.734375 -11.90625 C 9.410156 -17.082031 7.195312 -22.898438 6.09375 -29.359375 C 3.132812 -43.390625 2.117188 -58.070312 3.046875 -73.40625 C 4.710938 -95.1875 10.160156 -117.160156 19.390625 -139.328125 C 23.816406 -150.035156 29.632812 -159.910156 36.84375 -168.953125 C 42.195312 -176.160156 49.394531 -182.625 58.4375 -188.34375 C 61.582031 -190.375 64.816406 -191.757812 68.140625 -192.5 C 70.171875 -192.875 72.015625 -192.691406 73.671875 -191.953125 C 74.597656 -191.578125 75.335938 -190.835938 75.890625 -189.734375 C 76.628906 -188.066406 76.257812 -187.234375 74.78125 -187.234375 C 70.539062 -187.609375 65.28125 -185.578125 59 -181.140625 C 51.613281 -176.347656 44.6875 -169.238281 38.21875 -159.8125 C 29.539062 -146.707031 22.34375 -131.476562 16.625 -114.125 C 10.707031 -95.101562 7.660156 -77.46875 7.484375 -61.21875 C 7.109375 -48.101562 8.125 -36.742188 10.53125 -27.140625 C 11.269531 -23.816406 12.742188 -19.847656 14.953125 -15.234375 C 20.128906 -5.628906 28.164062 -1.75 39.0625 -3.59375 C 45.519531 -4.519531 51.332031 -6.738281 56.5 -10.25 C 64.070312 -15.789062 70.164062 -21.882812 74.78125 -28.53125 C 79.582031 -35.363281 88.351562 -49.953125 101.09375 -72.296875 C 104.238281 -77.097656 106.914062 -81.710938 109.125 -86.140625 L 110.234375 -87.25 L 111.078125 -87.796875 C 111.441406 -87.429688 111.625 -87.066406 111.625 -86.703125 C 110.882812 -84.847656 110.238281 -83.550781 109.6875 -82.8125 C 98.601562 -63.425781 89.367188 -47.457031 81.984375 -34.90625 C 75.335938 -23.632812 66.660156 -14.398438 55.953125 -7.203125 C 49.671875 -2.953125 42.191406 -0.550781 33.515625 0 Z M 33.515625 0 "/></g></g></g><g fill="#a87a64" fill-opacity="1"><g transform="translate(491.757205, 363.95396)"><g><path d="M -9.6875 33.234375 C -11.351562 33.054688 -12.367188 31.671875 -12.734375 29.078125 C -13.660156 25.578125 -13.941406 21.703125 -13.578125 17.453125 C -13.390625 9.691406 -12.1875 -0.832031 -9.96875 -14.125 C -7.195312 -30.007812 -4.148438 -46.164062 -0.828125 -62.59375 C -0.828125 -62.96875 -0.273438 -65.738281 0.828125 -70.90625 C 1.941406 -76.070312 2.679688 -79.671875 3.046875 -81.703125 C 3.234375 -83.921875 3.785156 -85.863281 4.703125 -87.53125 C 5.265625 -88.445312 6.003906 -88.90625 6.921875 -88.90625 C 8.035156 -88.726562 8.59375 -88.082031 8.59375 -86.96875 C 8.957031 -84.382812 9.140625 -82.351562 9.140625 -80.875 C 9.140625 -77 7.382812 -65.828125 3.875 -47.359375 C 1.476562 -35.910156 -1.9375 -18.738281 -6.375 4.15625 C -6.925781 6.925781 -7.476562 11.078125 -8.03125 16.609375 C -8.582031 22.148438 -8.859375 25.109375 -8.859375 25.484375 L -8.3125 26.3125 C -7.757812 26.3125 -7.484375 26.128906 -7.484375 25.765625 C -6.003906 22.066406 -4.988281 19.296875 -4.4375 17.453125 C 1.84375 -4.703125 6.921875 -21.226562 10.796875 -32.125 C 15.785156 -46.894531 20.957031 -58.710938 26.3125 -67.578125 C 29.632812 -73.304688 32.679688 -77.738281 35.453125 -80.875 C 39.328125 -85.675781 43.941406 -89.832031 49.296875 -93.34375 C 53.921875 -95.925781 57.894531 -97.21875 61.21875 -97.21875 C 68.050781 -97.21875 72.390625 -93.988281 74.234375 -87.53125 C 74.597656 -86.238281 74.960938 -85.453125 75.328125 -85.171875 C 75.703125 -84.890625 76.445312 -84.84375 77.5625 -85.03125 C 80.882812 -85.769531 88.914062 -87.0625 101.65625 -88.90625 C 101.84375 -88.90625 105.070312 -89.1875 111.34375 -89.75 C 111.71875 -89.75 112.226562 -89.703125 112.875 -89.609375 C 113.519531 -89.515625 113.9375 -89.46875 114.125 -89.46875 C 114.488281 -89.09375 114.671875 -88.816406 114.671875 -88.640625 C 114.859375 -88.078125 114.765625 -87.613281 114.390625 -87.25 C 113.285156 -86.507812 111.625 -86.140625 109.40625 -86.140625 C 104.789062 -86.140625 97.867188 -85.398438 88.640625 -83.921875 C 87.523438 -83.742188 85.765625 -83.375 83.359375 -82.8125 C 80.960938 -82.257812 79.117188 -81.890625 77.828125 -81.703125 C 75.429688 -81.148438 74.140625 -79.859375 73.953125 -77.828125 C 72.660156 -70.628906 69.519531 -63.796875 64.53125 -57.328125 C 60.84375 -51.609375 55.765625 -47.828125 49.296875 -45.984375 C 45.609375 -44.691406 42.425781 -45.242188 39.75 -47.640625 C 37.070312 -50.035156 36.101562 -53.265625 36.84375 -57.328125 C 37.757812 -61.765625 39.878906 -65.550781 43.203125 -68.6875 C 48.191406 -73.488281 53.734375 -77.09375 59.828125 -79.5 L 68.6875 -82.8125 C 70.164062 -83.1875 70.8125 -84.296875 70.625 -86.140625 C 70.257812 -90.578125 67.769531 -93.070312 63.15625 -93.625 C 60.570312 -93.988281 58.351562 -93.800781 56.5 -93.0625 C 53.550781 -92.144531 50.046875 -90.207031 45.984375 -87.25 C 41.546875 -83.925781 37.390625 -79.492188 33.515625 -73.953125 C 27.609375 -65.828125 22.253906 -55.578125 17.453125 -43.203125 C 14.492188 -36.003906 10.800781 -25.203125 6.375 -10.796875 C 5.257812 -7.472656 3.734375 -2.488281 1.796875 4.15625 C -0.140625 10.800781 -1.570312 15.785156 -2.5 19.109375 C -3.226562 21.515625 -4.519531 25.117188 -6.375 29.921875 C -7.113281 32.128906 -8.21875 33.234375 -9.6875 33.234375 Z M 45.984375 -48.46875 C 46.347656 -48.46875 47.269531 -48.65625 48.75 -49.03125 C 52.625 -50.320312 55.945312 -52.535156 58.71875 -55.671875 C 64.445312 -61.953125 68.234375 -69.0625 70.078125 -77 C 70.265625 -77.925781 70.21875 -78.570312 69.9375 -78.9375 C 69.65625 -79.3125 69.054688 -79.3125 68.140625 -78.9375 C 60.015625 -76.351562 52.71875 -72.289062 46.25 -66.75 C 43.851562 -64.53125 41.914062 -61.851562 40.4375 -58.71875 C 40.4375 -58.53125 40.34375 -58.207031 40.15625 -57.75 C 39.976562 -57.289062 39.84375 -56.875 39.75 -56.5 C 39.65625 -56.132812 39.609375 -55.765625 39.609375 -55.390625 C 39.421875 -53.546875 39.972656 -51.882812 41.265625 -50.40625 C 42.554688 -48.925781 44.128906 -48.28125 45.984375 -48.46875 Z M 45.984375 -48.46875 "/></g></g></g><g fill="#464c4c" fill-opacity="1"><g transform="translate(329.660306, 280.700976)"><g><path d="M 1.875 -12.703125 C 1.59375 -10.597656 0.875 -8.753906 -0.28125 -7.171875 C -1.445312 -5.597656 -2.921875 -4.4375 -4.703125 -3.6875 C -6.492188 -2.945312 -8.410156 -2.710938 -10.453125 -2.984375 C -12.503906 -3.253906 -14.296875 -3.984375 -15.828125 -5.171875 C -17.359375 -6.359375 -18.476562 -7.867188 -19.1875 -9.703125 C -19.894531 -11.535156 -20.109375 -13.503906 -19.828125 -15.609375 C -19.617188 -17.203125 -19.160156 -18.628906 -18.453125 -19.890625 C -17.742188 -21.160156 -16.820312 -22.195312 -15.6875 -23 L -14.453125 -21.375 C -16.347656 -19.9375 -17.460938 -17.945312 -17.796875 -15.40625 C -18.023438 -13.71875 -17.84375 -12.132812 -17.25 -10.65625 C -16.65625 -9.175781 -15.742188 -7.957031 -14.515625 -7 C -13.285156 -6.039062 -11.832031 -5.445312 -10.15625 -5.21875 C -8.488281 -5 -6.9375 -5.191406 -5.5 -5.796875 C -4.0625 -6.398438 -2.863281 -7.335938 -1.90625 -8.609375 C -0.945312 -9.890625 -0.351562 -11.375 -0.125 -13.0625 C 0.207031 -15.625 -0.367188 -17.835938 -1.859375 -19.703125 L -0.234375 -20.953125 C 0.660156 -19.878906 1.285156 -18.632812 1.640625 -17.21875 C 2.003906 -15.800781 2.082031 -14.296875 1.875 -12.703125 Z M 1.875 -12.703125 "/></g></g></g><g fill="#464c4c" fill-opacity="1"><g transform="translate(332.63635, 258.710967)"><g><path d="M 3.171875 -18.546875 L 5.0625 -18.015625 L 0.953125 -3.375 L -19.765625 -9.203125 L -15.78125 -23.390625 L -13.875 -22.84375 L -17.25 -10.84375 L -9.890625 -8.78125 L -6.875 -19.5 L -5 -18.96875 L -8.015625 -8.25 L -0.328125 -6.09375 Z M 3.171875 -18.546875 "/></g></g></g><g fill="#464c4c" fill-opacity="1"><g transform="translate(338.179035, 238.80564)"><g><path d="M 5.359375 -11.671875 C 4.503906 -9.722656 3.296875 -8.15625 1.734375 -6.96875 C 0.179688 -5.78125 -1.550781 -5.078125 -3.46875 -4.859375 C -5.394531 -4.648438 -7.300781 -4.960938 -9.1875 -5.796875 C -11.082031 -6.640625 -12.597656 -7.84375 -13.734375 -9.40625 C -14.867188 -10.96875 -15.515625 -12.726562 -15.671875 -14.6875 C -15.835938 -16.65625 -15.492188 -18.613281 -14.640625 -20.5625 C -13.992188 -22.019531 -13.148438 -23.253906 -12.109375 -24.265625 C -11.078125 -25.285156 -9.90625 -26.023438 -8.59375 -26.484375 L -7.859375 -24.578125 C -10.085938 -23.722656 -11.71875 -22.125 -12.75 -19.78125 C -13.4375 -18.226562 -13.703125 -16.65625 -13.546875 -15.0625 C -13.398438 -13.46875 -12.867188 -12.039062 -11.953125 -10.78125 C -11.046875 -9.519531 -9.820312 -8.546875 -8.28125 -7.859375 C -6.75 -7.179688 -5.203125 -6.925781 -3.640625 -7.09375 C -2.085938 -7.269531 -0.675781 -7.835938 0.59375 -8.796875 C 1.875 -9.765625 2.859375 -11.023438 3.546875 -12.578125 C 4.585938 -14.941406 4.65625 -17.226562 3.75 -19.4375 L 5.65625 -20.1875 C 6.21875 -18.894531 6.472656 -17.519531 6.421875 -16.0625 C 6.367188 -14.601562 6.015625 -13.140625 5.359375 -11.671875 Z M 5.359375 -11.671875 "/></g></g></g><g fill="#464c4c" fill-opacity="1"><g transform="translate(347.619511, 218.357912)"><g><path d="M -16.890625 -13.78125 L -15.75 -15.75 L 2.890625 -5 L 1.75 -3.03125 Z M -16.890625 -13.78125 "/></g></g></g><g fill="#464c4c" fill-opacity="1"><g transform="translate(352.386386, 209.729823)"><g><path d="M -15.5 -15.328125 L -14.1875 -17.1875 L 1.734375 -5.859375 L 8.71875 -15.671875 L 10.328125 -14.53125 L 2.03125 -2.859375 Z M -15.5 -15.328125 "/></g></g></g><g fill="#464c4c" fill-opacity="1"><g transform="translate(362.952779, 194.758588)"><g><path d="M 11.296875 -15.0625 L 12.734375 -13.71875 L 2.375 -2.5625 L -13.390625 -17.203125 L -3.359375 -28.015625 L -1.921875 -26.671875 L -10.390625 -17.53125 L -4.78125 -12.328125 L 2.78125 -20.484375 L 4.203125 -19.15625 L -3.359375 -11 L 2.5 -5.578125 Z M 11.296875 -15.0625 "/></g></g></g><g fill="#464c4c" fill-opacity="1"><g transform="translate(377.528822, 179.538316)"><g/></g></g><g fill="#464c4c" fill-opacity="1"><g transform="translate(383.70949, 173.621625)"><g><path d="M -3.109375 -24.234375 C -0.878906 -25.828125 1.242188 -26.539062 3.265625 -26.375 C 5.296875 -26.21875 6.976562 -25.207031 8.3125 -23.34375 C 9.644531 -21.476562 10.054688 -19.5625 9.546875 -17.59375 C 9.046875 -15.632812 7.679688 -13.859375 5.453125 -12.265625 L 0.75 -8.890625 L 4.703125 -3.359375 L 2.84375 -2.03125 L -9.671875 -19.53125 Z M 4.234375 -13.84375 C 5.953125 -15.082031 7 -16.40625 7.375 -17.8125 C 7.757812 -19.226562 7.457031 -20.628906 6.46875 -22.015625 C 5.457031 -23.429688 4.21875 -24.1875 2.75 -24.28125 C 1.289062 -24.382812 -0.296875 -23.816406 -2.015625 -22.578125 L -6.671875 -19.25 L -0.421875 -10.515625 Z M 4.234375 -13.84375 "/></g></g></g><g fill="#464c4c" fill-opacity="1"><g transform="translate(401.531942, 160.683734)"><g><path d="M 11.625 -5.59375 C 9.726562 -4.644531 7.789062 -4.207031 5.8125 -4.28125 C 3.84375 -4.363281 2.046875 -4.929688 0.421875 -5.984375 C -1.191406 -7.035156 -2.457031 -8.488281 -3.375 -10.34375 C -4.300781 -12.195312 -4.695312 -14.082031 -4.5625 -16 C -4.425781 -17.914062 -3.796875 -19.6875 -2.671875 -21.3125 C -1.546875 -22.945312 -0.0351562 -24.238281 1.859375 -25.1875 C 3.773438 -26.132812 5.707031 -26.566406 7.65625 -26.484375 C 9.601562 -26.398438 11.390625 -25.832031 13.015625 -24.78125 C 14.640625 -23.726562 15.914062 -22.273438 16.84375 -20.421875 C 17.757812 -18.566406 18.148438 -16.671875 18.015625 -14.734375 C 17.890625 -12.796875 17.269531 -11.023438 16.15625 -9.421875 C 15.050781 -7.816406 13.539062 -6.539062 11.625 -5.59375 Z M 10.71875 -7.421875 C 12.238281 -8.171875 13.441406 -9.195312 14.328125 -10.5 C 15.210938 -11.800781 15.703125 -13.234375 15.796875 -14.796875 C 15.890625 -16.367188 15.5625 -17.90625 14.8125 -19.40625 C 14.0625 -20.914062 13.03125 -22.101562 11.71875 -22.96875 C 10.414062 -23.832031 8.976562 -24.300781 7.40625 -24.375 C 5.832031 -24.457031 4.285156 -24.125 2.765625 -23.375 C 1.242188 -22.613281 0.0351562 -21.578125 -0.859375 -20.265625 C -1.753906 -18.953125 -2.25 -17.515625 -2.34375 -15.953125 C -2.4375 -14.390625 -2.109375 -12.851562 -1.359375 -11.34375 C -0.609375 -9.84375 0.414062 -8.65625 1.71875 -7.78125 C 3.03125 -6.914062 4.476562 -6.445312 6.0625 -6.375 C 7.644531 -6.3125 9.195312 -6.660156 10.71875 -7.421875 Z M 10.71875 -7.421875 "/></g></g></g><g fill="#464c4c" fill-opacity="1"><g transform="translate(424.788254, 149.419358)"><g><path d="M 1.1875 -20.96875 L -5.984375 -18.609375 L -6.59375 -20.484375 L 9.921875 -25.90625 L 10.53125 -24.03125 L 3.34375 -21.671875 L 9.453125 -3.109375 L 7.296875 -2.40625 Z M 1.1875 -20.96875 "/></g></g></g><g fill="#464c4c" fill-opacity="1"><g transform="translate(442.155237, 143.936687)"><g><path d="M -1.390625 -21.75 L 0.84375 -22.25 L 5.640625 -1.28125 L 3.40625 -0.78125 Z M -1.390625 -21.75 "/></g></g></g><g fill="#464c4c" fill-opacity="1"><g transform="translate(451.634494, 141.500674)"><g><path d="M 18.34375 -4.234375 L 18.578125 -2.28125 L 3.46875 -0.421875 L 0.84375 -21.78125 L 15.484375 -23.578125 L 15.734375 -21.625 L 3.359375 -20.109375 L 4.28125 -12.5 L 15.328125 -13.859375 L 15.5625 -11.9375 L 4.515625 -10.578125 L 5.5 -2.65625 Z M 18.34375 -4.234375 "/></g></g></g><g fill="#464c4c" fill-opacity="1"><g transform="translate(472.132959, 138.929931)"><g><path d="M 18.1875 0.375 L 13.421875 -6.65625 C 12.867188 -6.601562 12.296875 -6.582031 11.703125 -6.59375 L 5.921875 -6.703125 L 5.78125 0.125 L 3.5 0.078125 L 3.9375 -21.4375 L 12 -21.28125 C 14.738281 -21.226562 16.875 -20.523438 18.40625 -19.171875 C 19.9375 -17.828125 20.675781 -16.007812 20.625 -13.71875 C 20.59375 -12.039062 20.140625 -10.628906 19.265625 -9.484375 C 18.398438 -8.347656 17.171875 -7.539062 15.578125 -7.0625 L 20.6875 0.421875 Z M 11.671875 -8.53125 C 13.796875 -8.488281 15.429688 -8.925781 16.578125 -9.84375 C 17.734375 -10.757812 18.328125 -12.066406 18.359375 -13.765625 C 18.398438 -15.503906 17.863281 -16.851562 16.75 -17.8125 C 15.644531 -18.769531 14.03125 -19.269531 11.90625 -19.3125 L 6.1875 -19.421875 L 5.953125 -8.640625 Z M 11.671875 -8.53125 "/></g></g></g><g fill="#464c4c" fill-opacity="1"><g transform="translate(432.338227, 455.806403)"><g><path d="M 25.234375 -16.859375 L 11.625 2.34375 L 9.4375 1.90625 L 4.359375 -21.078125 L 6.765625 -20.59375 L 11.125 -0.625 L 22.984375 -17.3125 Z M 25.234375 -16.859375 "/></g></g></g><g fill="#464c4c" fill-opacity="1"><g transform="translate(456.024163, 460.122532)"><g><path d="M 5.515625 -21.09375 L 7.78125 -20.875 L 5.75 0.546875 L 3.484375 0.328125 Z M 5.515625 -21.09375 "/></g></g></g><g fill="#464c4c" fill-opacity="1"><g transform="translate(467.916432, 461.453785)"><g><path d="M 18.1875 -0.234375 L 13.1875 -7.09375 C 12.632812 -7.03125 12.0625 -6.992188 11.46875 -6.984375 L 5.6875 -6.90625 L 5.78125 -0.078125 L 3.5 -0.046875 L 3.21875 -21.5625 L 11.28125 -21.671875 C 14.019531 -21.703125 16.175781 -21.070312 17.75 -19.78125 C 19.320312 -18.488281 20.125 -16.695312 20.15625 -14.40625 C 20.175781 -12.726562 19.769531 -11.300781 18.9375 -10.125 C 18.101562 -8.957031 16.898438 -8.109375 15.328125 -7.578125 L 20.6875 -0.28125 Z M 11.390625 -8.921875 C 13.515625 -8.941406 15.132812 -9.429688 16.25 -10.390625 C 17.363281 -11.347656 17.910156 -12.675781 17.890625 -14.375 C 17.867188 -16.113281 17.285156 -17.441406 16.140625 -18.359375 C 14.992188 -19.273438 13.359375 -19.722656 11.234375 -19.703125 L 5.515625 -19.625 L 5.671875 -8.84375 Z M 11.390625 -8.921875 "/></g></g></g><g fill="#464c4c" fill-opacity="1"><g transform="translate(493.064183, 460.769697)"><g><path d="M 4.75 -20.46875 L -2.734375 -19.359375 L -3.015625 -21.296875 L 14.1875 -23.84375 L 14.46875 -21.90625 L 6.984375 -20.796875 L 9.84375 -1.453125 L 7.609375 -1.125 Z M 4.75 -20.46875 "/></g></g></g><g fill="#464c4c" fill-opacity="1"><g transform="translate(513.519151, 457.767153)"><g><path d="M 11.71875 -3.265625 C 9.039062 -2.472656 6.726562 -2.625 4.78125 -3.71875 C 2.832031 -4.8125 1.429688 -6.820312 0.578125 -9.75 L -2.921875 -21.578125 L -0.734375 -22.21875 L 2.734375 -10.484375 C 3.441406 -8.085938 4.507812 -6.457031 5.9375 -5.59375 C 7.375 -4.726562 9.113281 -4.601562 11.15625 -5.21875 C 13.21875 -5.820312 14.613281 -6.875 15.34375 -8.375 C 16.082031 -9.875 16.097656 -11.820312 15.390625 -14.21875 L 11.921875 -25.953125 L 14.03125 -26.578125 L 17.53125 -14.75 C 18.382812 -11.820312 18.296875 -9.367188 17.265625 -7.390625 C 16.234375 -5.421875 14.382812 -4.046875 11.71875 -3.265625 Z M 11.71875 -3.265625 "/></g></g></g><g fill="#464c4c" fill-opacity="1"><g transform="translate(539.802388, 449.664223)"><g><path d="M 12.921875 -12.453125 L 2.078125 -7.34375 L 2.1875 -1.03125 L 0.0625 -0.03125 L -0.25 -23.671875 L 1.796875 -24.640625 L 19.875 -9.375 L 17.703125 -8.359375 Z M 11.390625 -13.78125 L 1.78125 -22 L 2.046875 -9.375 Z M 11.390625 -13.78125 "/></g></g></g><g fill="#464c4c" fill-opacity="1"><g transform="translate(562.255551, 438.707572)"><g><path d="M -8.765625 -19.953125 L -6.859375 -21.1875 L 3.765625 -4.796875 L 13.875 -11.359375 L 14.953125 -9.703125 L 2.9375 -1.90625 Z M -8.765625 -19.953125 "/></g></g></g><g fill="#464c4c" fill-opacity="1"><g transform="translate(579.336673, 427.225608)"><g/></g></g><g fill="#464c4c" fill-opacity="1"><g transform="translate(587.878021, 420.797638)"><g><path d="M 8.21875 -15.953125 L -0.390625 -7.609375 L 1.734375 -1.6875 L 0.046875 -0.046875 L -7.859375 -22.328125 L -6.25 -23.90625 L 15.78125 -15.28125 L 14.0625 -13.625 Z M 6.34375 -16.703125 L -5.40625 -21.40625 L -1.078125 -9.515625 Z M 6.34375 -16.703125 "/></g></g></g><g fill="#464c4c" fill-opacity="1"><g transform="translate(605.628686, 403.176259)"><g><path d="M 5.953125 -7.3125 C 4.972656 -6.050781 3.828125 -5.003906 2.515625 -4.171875 C 1.210938 -3.335938 -0.0078125 -2.859375 -1.15625 -2.734375 L -2 -4.515625 C -0.90625 -4.648438 0.226562 -5.078125 1.40625 -5.796875 C 2.582031 -6.523438 3.59375 -7.425781 4.4375 -8.5 C 5.632812 -10.019531 6.25 -11.378906 6.28125 -12.578125 C 6.320312 -13.773438 5.898438 -14.722656 5.015625 -15.421875 C 4.328125 -15.953125 3.617188 -16.164062 2.890625 -16.0625 C 2.160156 -15.957031 1.457031 -15.691406 0.78125 -15.265625 C 0.101562 -14.847656 -0.785156 -14.210938 -1.890625 -13.359375 C -3.203125 -12.335938 -4.304688 -11.5625 -5.203125 -11.03125 C -6.097656 -10.507812 -7.0625 -10.21875 -8.09375 -10.15625 C -9.125 -10.09375 -10.164062 -10.46875 -11.21875 -11.28125 C -12.070312 -11.957031 -12.671875 -12.796875 -13.015625 -13.796875 C -13.359375 -14.796875 -13.375 -15.925781 -13.0625 -17.1875 C -12.757812 -18.457031 -12.066406 -19.785156 -10.984375 -21.171875 C -10.222656 -22.140625 -9.34375 -22.984375 -8.34375 -23.703125 C -7.351562 -24.429688 -6.359375 -24.941406 -5.359375 -25.234375 L -4.421875 -23.53125 C -5.441406 -23.175781 -6.382812 -22.6875 -7.25 -22.0625 C -8.113281 -21.445312 -8.851562 -20.75 -9.46875 -19.96875 C -10.625 -18.488281 -11.207031 -17.148438 -11.21875 -15.953125 C -11.238281 -14.753906 -10.796875 -13.800781 -9.890625 -13.09375 C -9.210938 -12.5625 -8.503906 -12.335938 -7.765625 -12.421875 C -7.035156 -12.515625 -6.316406 -12.785156 -5.609375 -13.234375 C -4.910156 -13.679688 -4.019531 -14.332031 -2.9375 -15.1875 C -1.65625 -16.195312 -0.566406 -16.960938 0.328125 -17.484375 C 1.234375 -18.015625 2.191406 -18.304688 3.203125 -18.359375 C 4.222656 -18.421875 5.25 -18.046875 6.28125 -17.234375 C 7.132812 -16.566406 7.734375 -15.726562 8.078125 -14.71875 C 8.421875 -13.71875 8.425781 -12.578125 8.09375 -11.296875 C 7.757812 -10.023438 7.046875 -8.695312 5.953125 -7.3125 Z M 5.953125 -7.3125 "/></g></g></g><g fill="#464c4c" fill-opacity="1"><g transform="translate(618.915018, 385.921788)"><g><path d="M 4.984375 -8.015625 C 4.160156 -6.640625 3.15625 -5.453125 1.96875 -4.453125 C 0.78125 -3.460938 -0.375 -2.832031 -1.5 -2.5625 L -2.5625 -4.234375 C -1.488281 -4.503906 -0.414062 -5.066406 0.65625 -5.921875 C 1.738281 -6.785156 2.628906 -7.8125 3.328125 -9 C 4.316406 -10.65625 4.753906 -12.078125 4.640625 -13.265625 C 4.523438 -14.460938 3.984375 -15.347656 3.015625 -15.921875 C 2.273438 -16.367188 1.550781 -16.492188 0.84375 -16.296875 C 0.132812 -16.109375 -0.53125 -15.757812 -1.15625 -15.25 C -1.78125 -14.738281 -2.582031 -13.988281 -3.5625 -13 C -4.738281 -11.820312 -5.738281 -10.914062 -6.5625 -10.28125 C -7.382812 -9.65625 -8.304688 -9.242188 -9.328125 -9.046875 C -10.347656 -8.847656 -11.425781 -9.09375 -12.5625 -9.78125 C -13.5 -10.332031 -14.203125 -11.082031 -14.671875 -12.03125 C -15.140625 -12.976562 -15.296875 -14.097656 -15.140625 -15.390625 C -14.992188 -16.691406 -14.472656 -18.097656 -13.578125 -19.609375 C -12.953125 -20.660156 -12.1875 -21.609375 -11.28125 -22.453125 C -10.382812 -23.296875 -9.460938 -23.9375 -8.515625 -24.375 L -7.359375 -22.765625 C -8.335938 -22.296875 -9.210938 -21.695312 -9.984375 -20.96875 C -10.765625 -20.25 -11.410156 -19.46875 -11.921875 -18.625 C -12.890625 -17 -13.300781 -15.585938 -13.15625 -14.390625 C -13.007812 -13.203125 -12.445312 -12.316406 -11.46875 -11.734375 C -10.726562 -11.285156 -10 -11.15625 -9.28125 -11.34375 C -8.570312 -11.53125 -7.894531 -11.890625 -7.25 -12.421875 C -6.601562 -12.960938 -5.800781 -13.71875 -4.84375 -14.6875 C -3.695312 -15.84375 -2.710938 -16.738281 -1.890625 -17.375 C -1.066406 -18.019531 -0.15625 -18.4375 0.84375 -18.625 C 1.851562 -18.820312 2.921875 -18.582031 4.046875 -17.90625 C 4.984375 -17.351562 5.679688 -16.597656 6.140625 -15.640625 C 6.609375 -14.679688 6.757812 -13.546875 6.59375 -12.234375 C 6.425781 -10.929688 5.890625 -9.523438 4.984375 -8.015625 Z M 4.984375 -8.015625 "/></g></g></g><g fill="#464c4c" fill-opacity="1"><g transform="translate(629.585396, 367.317864)"><g><path d="M -17.984375 -12.34375 L -17 -14.40625 L 2.46875 -5.234375 L 1.484375 -3.171875 Z M -17.984375 -12.34375 "/></g></g></g><g fill="#464c4c" fill-opacity="1"><g transform="translate(634.732682, 356.647376)"><g><path d="M 3.34375 -8.828125 C 2.800781 -7.316406 2.039062 -5.957031 1.0625 -4.75 C 0.09375 -3.539062 -0.914062 -2.703125 -1.96875 -2.234375 L -3.328125 -3.65625 C -2.335938 -4.132812 -1.394531 -4.898438 -0.5 -5.953125 C 0.394531 -7.015625 1.070312 -8.191406 1.53125 -9.484375 C 2.175781 -11.296875 2.328125 -12.769531 1.984375 -13.90625 C 1.640625 -15.050781 0.941406 -15.816406 -0.109375 -16.203125 C -0.921875 -16.492188 -1.65625 -16.476562 -2.3125 -16.15625 C -2.976562 -15.832031 -3.566406 -15.359375 -4.078125 -14.734375 C -4.597656 -14.117188 -5.242188 -13.226562 -6.015625 -12.0625 C -6.941406 -10.675781 -7.742188 -9.59375 -8.421875 -8.8125 C -9.097656 -8.039062 -9.921875 -7.460938 -10.890625 -7.078125 C -11.859375 -6.691406 -12.96875 -6.722656 -14.21875 -7.171875 C -15.238281 -7.535156 -16.070312 -8.132812 -16.71875 -8.96875 C -17.363281 -9.800781 -17.738281 -10.867188 -17.84375 -12.171875 C -17.945312 -13.472656 -17.703125 -14.953125 -17.109375 -16.609375 C -16.691406 -17.765625 -16.125 -18.84375 -15.40625 -19.84375 C -14.695312 -20.84375 -13.921875 -21.644531 -13.078125 -22.25 L -11.625 -20.921875 C -12.488281 -20.265625 -13.226562 -19.503906 -13.84375 -18.640625 C -14.46875 -17.785156 -14.945312 -16.890625 -15.28125 -15.953125 C -15.914062 -14.179688 -16.050781 -12.722656 -15.6875 -11.578125 C -15.320312 -10.429688 -14.601562 -9.664062 -13.53125 -9.28125 C -12.71875 -8.988281 -11.976562 -9.003906 -11.3125 -9.328125 C -10.644531 -9.648438 -10.046875 -10.132812 -9.515625 -10.78125 C -8.992188 -11.4375 -8.347656 -12.332031 -7.578125 -13.46875 C -6.691406 -14.832031 -5.90625 -15.90625 -5.21875 -16.6875 C -4.53125 -17.476562 -3.707031 -18.0625 -2.75 -18.4375 C -1.800781 -18.820312 -0.710938 -18.789062 0.515625 -18.34375 C 1.535156 -17.976562 2.363281 -17.367188 3 -16.515625 C 3.644531 -15.671875 4.007812 -14.59375 4.09375 -13.28125 C 4.1875 -11.96875 3.9375 -10.484375 3.34375 -8.828125 Z M 3.34375 -8.828125 "/></g></g></g><g fill="#464c4c" fill-opacity="1"><g transform="translate(641.839574, 336.109672)"><g><path d="M -17.40625 -11.765625 L -19.046875 -4.390625 L -20.96875 -4.8125 L -17.1875 -21.78125 L -15.265625 -21.359375 L -16.90625 -13.984375 L 2.171875 -9.71875 L 1.671875 -7.5 Z M -17.40625 -11.765625 "/></g></g></g><g fill="#464c4c" fill-opacity="1"><g transform="translate(646.279229, 316.004731)"><g><path d="M -4.265625 -17.4375 L -5.296875 -5.5 L 0.203125 -2.40625 L 0 -0.0625 L -20.578125 -11.71875 L -20.390625 -13.953125 L 1.90625 -21.890625 L 1.703125 -19.5 Z M -6.15625 -16.765625 L -18.109375 -12.609375 L -7.0625 -6.484375 Z M -6.15625 -16.765625 "/></g></g></g><g fill="#464c4c" fill-opacity="1"><g transform="translate(648.32643, 290.851163)"><g><path d="M -22.953125 -19.953125 L -1.484375 -21.4375 L -1.359375 -19.5625 L -17.8125 -4.5625 L -0.40625 -5.765625 L -0.234375 -3.484375 L -21.703125 -2 L -21.84375 -3.875 L -5.375 -18.90625 L -22.796875 -17.703125 Z M -22.953125 -19.953125 "/></g></g></g><g fill="#464c4c" fill-opacity="1"><g transform="translate(645.922904, 262.945859)"><g><path d="M -20.71875 -3.421875 L -19.140625 3.96875 L -21.0625 4.390625 L -24.703125 -12.609375 L -22.78125 -13.03125 L -21.203125 -5.640625 L -2.09375 -9.734375 L -1.609375 -7.515625 Z M -20.71875 -3.421875 "/></g></g></g></svg>